<svg version="1.1" id="Layer_1" xmlns="http://www.w3.org/2000/svg" xmlns:xlink="http://www.w3.org/1999/xlink" x="0px" y="0px"
	 width="100%" viewBox="0 0 512 512" enable-background="new 0 0 512 512" xml:space="preserve">
<path fill="#FDFDFD" opacity="1.000000" stroke="none" 
	d="
M239.000000,513.000000 
	C159.684158,513.000000 80.368317,513.000000 1.026237,513.000000 
	C1.026237,342.388458 1.026237,171.776901 1.026237,1.082679 
	C171.573883,1.082679 342.147797,1.082679 512.860840,1.082679 
	C512.860840,171.666595 512.860840,342.333282 512.860840,513.000000 
	C448.905487,513.000000 384.919708,513.000000 320.386780,512.536743 
	C318.808289,499.501099 320.207062,487.182373 322.982056,474.888245 
	C324.068634,470.074310 325.263580,467.072205 330.841492,465.989044 
	C340.098267,464.191559 347.488342,459.358765 350.497864,449.586609 
	C353.108459,441.109833 349.487518,431.928101 342.143677,428.850189 
	C334.431366,425.617859 324.989075,427.274994 319.867462,433.841370 
	C314.966431,440.124817 311.038330,447.167175 307.009369,453.372589 
	C306.437561,451.611023 305.711884,448.863068 304.651031,446.251312 
	C303.590393,443.640076 302.406006,441.031097 300.903168,438.657074 
	C297.348602,433.042023 291.755768,431.284790 286.826599,433.976776 
	C281.882172,436.677124 280.600830,442.267395 283.238647,448.367126 
	C284.747772,451.856934 286.349731,455.438263 287.008972,459.138855 
	C288.876526,469.622192 290.065613,480.226501 291.938660,490.708679 
	C293.277557,498.201355 295.288788,505.573883 297.000000,513.000000 
	C284.977997,513.000000 272.955963,513.000000 260.293945,512.559326 
	C260.603668,479.203247 261.604187,446.289246 262.469177,413.371674 
	C262.700653,404.562653 262.773804,395.733185 262.443390,386.930969 
	C262.189728,380.172821 257.043365,375.782379 251.028839,376.411713 
	C244.816574,377.061798 241.214035,382.036499 241.859863,388.900696 
	C242.155289,392.040497 242.443970,395.205566 242.375198,398.351257 
	C241.731888,427.785828 241.061768,457.220093 240.279968,486.651245 
	C240.046524,495.439301 239.437149,504.217346 239.000000,513.000000 
M196.679260,228.845490 
	C197.128311,230.895660 197.577362,232.945831 197.254013,235.039505 
	C196.482040,235.037582 195.710052,235.035660 194.409454,234.562057 
	C193.277893,231.040344 192.146332,227.518631 191.456009,223.720581 
	C191.100006,223.117432 190.743988,222.514282 190.065414,221.195511 
	C189.743530,219.123764 189.421646,217.052032 189.510345,214.738281 
	C189.270309,214.116791 189.030258,213.495300 188.462845,212.109909 
	C188.341736,210.733307 188.220627,209.356689 188.565948,207.649033 
	C188.244064,206.726685 187.922180,205.804352 187.289749,204.200638 
	C187.235184,203.458755 187.180634,202.716873 187.587784,201.648071 
	C187.277832,200.724182 186.967880,199.800308 186.323456,198.153748 
	C186.224411,197.100708 186.125351,196.047653 186.451859,194.751892 
	C186.203629,194.126404 185.955414,193.500931 185.364548,192.154358 
	C185.262146,191.099060 185.159744,190.043777 185.474808,188.750488 
	C185.243423,188.124863 185.012054,187.499252 184.438721,186.150009 
	C184.330704,185.092407 184.222672,184.034805 184.568146,182.639404 
	C184.256454,181.719177 183.944748,180.798950 183.334869,179.141434 
	C183.257355,178.087494 183.179840,177.033554 183.538666,175.737961 
	C183.250763,175.116699 182.962875,174.495422 182.322647,173.299179 
	C182.268097,172.855743 182.213547,172.412308 182.611816,171.578339 
	C181.938339,170.012909 181.264877,168.447464 180.233444,166.233185 
	C179.933731,165.041153 179.634018,163.849136 179.660767,161.892639 
	C178.226959,158.233063 176.793152,154.573502 174.963501,150.332123 
	C171.671921,146.427490 168.380325,142.522842 165.049805,138.085892 
	C164.373596,138.014664 163.697388,137.943436 162.177902,137.875107 
	C160.775223,137.865692 159.372543,137.856293 157.680557,137.418045 
	C157.088394,137.808868 156.496246,138.199707 155.356110,139.023285 
	C153.338898,141.133224 150.673172,142.921143 149.433701,145.417282 
	C146.460907,151.404068 144.158142,157.723557 141.055054,163.970810 
	C141.039993,164.647797 141.024933,165.324783 141.010315,166.766678 
	C140.538788,168.481140 140.067261,170.195587 139.070526,171.967407 
	C139.017838,172.640015 138.965149,173.312622 138.900146,174.660599 
	C138.717834,175.067093 138.535522,175.473587 137.862701,175.982162 
	C137.841934,176.643845 137.821167,177.305527 137.812424,178.627167 
	C137.287659,179.797409 136.762894,180.967667 135.564560,182.077591 
	C135.029221,182.689163 134.493881,183.300720 133.576630,184.472733 
	C129.949387,190.957077 126.322128,197.441422 122.006218,204.114655 
	C121.851311,204.957581 121.696404,205.800491 121.446907,207.323883 
	C121.135262,208.181961 120.823616,209.040039 119.989006,209.969589 
	C119.985184,210.645081 119.981361,211.320572 120.017288,212.793579 
	C119.777336,213.822067 119.537384,214.850571 118.819923,216.011673 
	C118.844551,216.668671 118.869179,217.325653 118.924309,218.778244 
	C118.708496,219.811691 118.492683,220.845139 117.763786,222.098984 
	C117.815109,223.061493 117.866440,224.024017 117.959953,225.735474 
	C117.762520,226.451172 117.565086,227.166855 116.872025,227.992462 
	C116.887367,228.657120 116.902718,229.321777 116.961182,230.775711 
	C116.504593,232.820312 116.047997,234.864929 115.004265,237.025299 
	C114.985413,238.013870 114.966560,239.002426 115.008575,240.888702 
	C114.755035,243.551758 114.501488,246.214813 113.650711,249.309097 
	C113.868050,254.248245 114.085388,259.187378 114.624115,264.715668 
	C114.685295,265.156097 114.746475,265.596527 114.370132,266.448334 
	C115.244247,267.633453 116.118370,268.818604 117.439827,270.209320 
	C117.718613,270.408264 117.905045,270.672424 118.015350,271.649963 
	C119.338799,272.127563 120.662247,272.605164 122.828880,273.095428 
	C124.230957,273.122803 125.633026,273.150177 127.314568,273.610321 
	C127.910629,273.223938 128.506683,272.837555 129.650101,272.009094 
	C135.309158,268.642761 136.132019,262.448853 138.902786,257.034149 
	C138.972015,256.362213 139.041245,255.690277 139.154556,254.267883 
	C140.630234,249.883255 142.105911,245.498642 144.085388,241.031067 
	C144.113220,240.363312 144.141052,239.695557 144.179245,238.281784 
	C144.925949,235.885193 145.672638,233.488602 146.945724,231.026367 
	C146.969940,230.351990 146.994156,229.677628 147.006729,228.253677 
	C147.219009,227.541931 147.431274,226.830200 148.132477,226.008286 
	C148.131012,225.345795 148.129547,224.683304 148.101501,223.352829 
	C148.254074,222.938583 148.406631,222.524323 149.064621,222.014206 
	C149.055130,221.344864 149.045639,220.675537 149.006317,219.259460 
	C149.198181,218.543869 149.390045,217.828278 150.083801,217.015717 
	C150.079453,216.347733 150.075119,215.679764 150.031586,214.348816 
	C150.168091,213.930969 150.304596,213.513138 151.016220,212.976730 
	C151.057678,211.992172 151.099136,211.007629 151.111542,209.354706 
	C151.260971,208.940079 151.410400,208.525467 152.060593,208.020874 
	C152.077393,207.353271 152.094193,206.685684 152.099182,205.265717 
	C152.313263,204.551178 152.527344,203.836639 153.211594,202.982056 
	C153.182266,202.328064 153.152954,201.674088 153.090286,200.352173 
	C153.240585,199.937500 153.390884,199.522827 154.176376,198.839111 
	C154.216385,198.004929 154.256378,197.170746 154.344574,195.603699 
	C154.708069,194.433868 155.071564,193.264038 155.960907,192.032364 
	C155.984329,191.356735 156.007751,190.681091 156.021927,189.340637 
	C156.169037,188.926590 156.316162,188.512558 156.978317,188.033157 
	C157.020569,187.361176 157.062836,186.689194 157.120255,185.284210 
	C157.563828,183.888504 158.007401,182.492813 159.049149,180.949768 
	C160.073639,179.947067 161.098114,178.944351 162.492416,178.477875 
	C162.614182,179.327957 162.735962,180.178040 162.400238,181.355133 
	C162.703583,182.278717 163.006912,183.202286 163.650314,184.847092 
	C163.753906,185.900711 163.857513,186.954315 163.537064,188.245499 
	C163.776611,188.872192 164.016159,189.498871 164.592209,190.850708 
	C164.692398,191.907593 164.792587,192.964493 164.434723,194.360031 
	C164.753494,195.279816 165.072250,196.199615 165.698776,197.852249 
	C165.787125,198.903961 165.875473,199.955688 165.531830,201.245865 
	C165.788696,201.872070 166.045547,202.498260 166.628418,203.852356 
	C166.725067,204.907043 166.821716,205.961716 166.451111,207.354401 
	C166.782639,208.273773 167.114182,209.193146 167.739243,210.850479 
	C167.822113,211.901154 167.904968,212.951828 167.556747,214.240494 
	C167.800644,214.868393 168.044540,215.496277 168.618073,216.850433 
	C168.730972,217.903214 168.843857,218.955978 168.536209,220.251801 
	C168.779160,220.876251 169.022110,221.500717 169.589020,222.803833 
	C169.666061,223.547592 169.743103,224.291351 169.393539,225.282089 
	C169.699112,225.897171 170.004669,226.512238 170.671982,227.699371 
	C170.725082,228.143951 170.778183,228.588516 170.409592,229.289368 
	C170.732162,229.899902 171.054733,230.510452 171.726334,231.696793 
	C171.778488,232.138870 171.830643,232.580963 171.468094,233.304367 
	C171.809799,233.905441 172.151505,234.506516 172.820419,235.714172 
	C173.061096,236.598846 173.301773,237.483536 173.228867,239.013824 
	C173.711090,239.702377 174.193314,240.390930 175.082855,241.652328 
	C176.344467,243.898575 177.606079,246.144836 179.018936,248.660355 
	C167.161057,250.771454 158.501862,257.023193 152.482986,266.567200 
	C149.043610,272.020905 146.473785,278.067780 143.904663,284.016968 
	C136.685547,300.733887 141.812729,319.018829 156.454468,329.796356 
	C167.266083,337.754547 179.438324,339.929901 192.461502,338.275421 
	C197.895340,337.585144 201.414795,333.532410 201.438904,328.544830 
	C201.463013,323.556976 197.953125,319.477509 192.546661,318.761169 
	C189.263123,318.326111 185.897964,318.528473 182.571671,318.391052 
	C172.631668,317.980438 163.672882,311.667542 162.498505,303.741241 
	C162.251694,303.118683 162.004898,302.496094 161.403946,301.098633 
	C160.232971,293.780487 164.511734,288.157501 167.986511,281.914978 
	C168.212708,281.107544 168.438904,280.300110 168.870132,278.860474 
	C172.243912,275.893829 175.617691,272.927185 179.460449,270.468964 
	C180.361404,270.613861 181.262344,270.758759 182.757294,271.209961 
	C184.517929,274.151611 186.587967,276.955933 187.968231,280.066376 
	C190.156601,284.997803 193.990753,287.758698 198.741150,287.137787 
	C203.491470,286.516907 207.270599,282.852325 207.236710,277.580688 
	C207.211899,273.718414 205.762207,269.865356 205.733994,265.988892 
	C208.210312,266.832794 210.646957,267.827576 213.170685,268.491241 
	C219.758591,270.223694 226.552856,264.235443 224.992752,257.355438 
	C225.026733,256.897217 225.060715,256.438965 225.540329,255.749588 
	C225.246643,255.124847 224.952957,254.500107 224.263016,253.199097 
	C222.508789,247.466034 220.754562,241.732986 219.459335,235.663300 
	C219.190948,234.734726 218.922546,233.806168 218.374466,232.134918 
	C218.283112,231.083298 218.191757,230.031693 218.537231,228.713394 
	C218.193817,228.106232 217.850403,227.499069 217.163910,226.156082 
	C216.448959,222.436081 215.734024,218.716095 215.450867,214.753952 
	C215.192505,214.128250 214.934143,213.502548 214.361786,212.144241 
	C214.272812,211.089844 214.183838,210.035446 214.558044,208.653580 
	C214.256149,207.728088 213.954254,206.802612 213.343369,205.196106 
	C213.270721,204.455826 213.198074,203.715530 213.558182,202.716049 
	C213.232437,202.104584 212.906708,201.493118 212.208160,200.232971 
	C210.480911,197.137131 208.753662,194.041290 206.996399,190.302383 
	C205.670044,189.833908 204.343674,189.365433 202.176056,188.887650 
	C200.777390,188.892044 199.378738,188.896439 197.592239,188.436737 
	C196.390991,189.283463 195.189743,190.130188 193.772827,191.422668 
	C193.571259,191.700943 193.305954,191.889572 192.330017,192.005676 
	C191.852371,193.331345 191.374725,194.657028 190.882523,196.848404 
	C191.568283,200.569641 192.254044,204.290878 192.521439,208.260559 
	C192.781464,208.881729 193.041489,209.502884 193.609116,210.891998 
	C193.736069,212.262024 193.863007,213.632065 193.556458,215.239441 
	C193.806931,215.867584 194.057388,216.495743 194.634933,217.850266 
	C194.742859,218.903000 194.850784,219.955734 194.525879,221.264450 
	C194.823563,221.881653 195.121231,222.498871 195.752319,223.785675 
	C195.830856,224.524597 195.909378,225.263519 195.570328,226.262573 
	C195.834274,226.881607 196.098221,227.500641 196.679260,228.845490 
M53.023659,391.020599 
	C53.023659,391.020599 52.799870,390.793182 52.712864,390.021820 
	C53.033352,384.648285 54.164169,379.167114 53.468437,373.928528 
	C52.606159,367.435913 47.863873,363.887878 42.682240,364.128693 
	C37.467201,364.371002 33.510826,368.303070 32.659744,374.822479 
	C31.906336,380.593689 31.474676,386.431244 31.318954,392.250732 
	C31.050409,402.286591 30.284964,411.734955 23.471634,420.313538 
	C18.101379,427.075134 20.441334,434.497406 27.902262,439.006989 
	C31.224407,441.014954 32.076183,443.492859 32.530773,447.051178 
	C33.306980,453.127014 34.331615,459.265839 36.184132,465.081238 
	C37.835140,470.264099 43.063061,472.548492 47.807892,471.332489 
	C52.755520,470.064575 55.716236,465.863251 55.126709,460.348633 
	C54.756523,456.885803 53.591190,453.504761 53.264793,450.041595 
	C53.043476,447.693329 52.924583,444.826111 54.042648,442.959259 
	C57.035725,437.961731 56.882698,433.699097 53.154655,429.232727 
	C50.362183,425.887146 50.586128,418.186218 53.542519,415.995667 
	C65.137810,407.404297 78.117546,402.079498 92.482689,400.453918 
	C93.853470,400.298828 96.175575,401.471344 96.777145,402.669586 
	C104.671310,418.393097 116.591232,432.049927 120.995842,449.557678 
	C122.290375,454.703278 123.557640,459.858551 124.685616,465.042389 
	C125.569611,469.104950 127.531952,472.665649 131.700684,473.185303 
	C134.672180,473.555695 138.138031,472.540497 140.890091,471.160278 
	C142.647797,470.278717 143.505951,467.603485 144.777222,465.717926 
	C145.071152,465.825256 145.435867,465.864197 145.664383,466.061188 
	C146.165253,466.492920 146.634018,466.974731 147.051804,467.488220 
	C157.904480,480.828949 172.673965,487.464264 188.911331,490.903687 
	C195.459045,492.290680 202.529617,492.332611 209.216843,491.620758 
	C215.860245,490.913635 219.602142,485.147369 218.536606,479.635468 
	C217.452026,474.025177 212.966278,471.354065 206.015427,471.786072 
	C195.101547,472.464325 184.991714,469.718750 175.359909,464.581818 
	C163.073837,458.029266 155.898392,447.123291 150.065857,435.199249 
	C144.475250,423.769775 149.312820,409.227722 160.446075,405.394257 
	C173.121277,401.029877 186.025177,402.440582 198.567093,406.946686 
	C199.266312,407.197906 199.803696,407.899475 200.908417,408.786499 
	C198.978851,409.886108 197.532516,411.164337 195.871048,411.577545 
	C189.106445,413.259857 182.296005,414.775848 175.464005,416.163849 
	C168.876419,417.502136 164.962326,422.149231 165.825699,427.956787 
	C166.687912,433.756500 171.954712,437.513672 178.409622,436.453430 
	C184.970032,435.375854 191.794113,434.698059 197.885849,432.286774 
	C205.039566,429.455170 211.887939,425.452667 218.189529,420.997284 
	C223.015671,417.585144 224.313995,411.944733 222.291885,406.127502 
	C219.384399,397.763153 214.290314,391.497986 205.907333,387.676117 
	C194.851608,382.635773 183.079391,382.629547 171.568359,382.765930 
	C152.081070,382.996796 133.505692,392.594727 128.815140,414.058411 
	C128.773819,414.247467 128.334122,414.349487 127.652046,414.733002 
	C125.233009,410.861084 122.707001,407.015442 120.385452,403.050110 
	C117.721870,398.500549 114.651634,394.225555 114.736656,388.392883 
	C114.768974,386.176086 112.446297,383.843872 110.986656,381.708008 
	C109.346687,379.308197 106.961533,377.297516 105.806854,374.712708 
	C103.781097,370.177917 102.527679,365.304504 100.800446,360.628418 
	C98.729111,355.020782 96.847595,349.301208 94.226723,343.952057 
	C92.235863,339.888794 88.302750,338.125549 83.690536,338.988220 
	C79.523323,339.767639 76.594818,342.397797 76.109756,346.581848 
	C75.800667,349.247925 76.502129,352.170044 77.316948,354.801941 
	C79.952492,363.315002 82.849907,371.746948 85.434189,379.567810 
	C76.379028,382.887238 67.832588,386.027740 59.279488,389.149963 
	C57.282528,389.878967 55.262970,390.546082 53.023659,391.020599 
M9.548248,213.881500 
	C9.107659,217.855133 8.519254,221.819305 8.263989,225.804794 
	C7.946548,230.761093 7.368930,235.792679 7.895783,240.684906 
	C8.409463,245.454803 11.921949,248.374924 16.762110,248.773346 
	C21.640257,249.174881 25.135254,246.630325 26.847210,242.153214 
	C27.844040,239.546310 28.364832,236.689789 28.674255,233.898407 
	C30.948593,213.381027 33.100983,192.850143 35.325455,172.327179 
	C35.947605,166.587204 36.682461,160.859436 37.386406,154.951584 
	C41.405342,155.480377 44.831627,156.245346 48.270622,156.307541 
	C53.025883,156.393539 56.651711,154.206696 58.220676,149.487976 
	C59.805305,144.722153 58.175529,140.676010 54.110493,138.246506 
	C50.768394,136.249084 46.891804,134.943710 43.086853,133.993103 
	C40.488579,133.343994 39.615021,132.507721 39.588066,129.766418 
	C39.448792,115.604095 44.784866,103.146652 51.245525,91.008194 
	C51.412682,90.694130 52.050461,90.630539 53.233650,90.120262 
	C57.790295,111.358879 62.189491,132.331314 66.807327,153.255478 
	C71.397156,174.052780 75.974274,194.858795 81.064232,215.536133 
	C82.556564,221.598541 85.472374,227.388702 88.294678,233.023712 
	C91.138824,238.702332 97.188385,240.657669 102.211304,238.204117 
	C107.126587,235.803146 108.839554,230.458710 106.593361,224.491150 
	C106.300362,223.712708 105.967484,222.946777 105.610313,222.195389 
	C98.684723,207.626083 95.303413,192.012161 91.984238,176.364258 
	C85.526299,145.919022 79.664520,115.321747 72.153275,85.136452 
	C68.451294,70.259377 63.381332,55.404488 53.744160,42.789471 
	C50.568089,38.632011 47.290295,34.966755 41.519516,35.645416 
	C35.446445,36.359623 32.051563,40.528954 30.430305,45.876945 
	C27.632612,55.105610 24.648741,64.365417 22.965853,73.829605 
	C14.785397,119.834602 12.255919,166.409988 9.548248,213.881500 
M282.445068,304.928802 
	C281.279144,299.412292 280.054504,293.907104 278.985260,288.371918 
	C278.688690,286.836609 278.411316,285.065369 278.880463,283.653320 
	C281.308319,276.346313 279.592377,270.752869 272.719238,267.387848 
	C266.707153,264.444397 260.254120,262.905426 253.366776,264.406586 
	C236.163712,268.156097 225.755417,279.191315 219.245209,295.001678 
	C211.249878,314.418793 215.696411,334.278198 231.636032,347.915314 
	C243.499832,358.065369 261.633453,356.656372 270.240845,344.578491 
	C278.460388,333.044861 283.012970,320.191315 282.445068,304.928802 
M392.317078,188.035782 
	C395.978455,191.149963 399.462799,194.507309 403.337494,197.328552 
	C411.848724,203.525742 416.550751,202.658417 422.429626,194.246613 
	C426.157349,200.703140 429.927094,202.965485 434.841156,201.695190 
	C439.997650,200.362213 442.565643,196.222336 442.577728,188.711945 
	C442.593506,178.889679 442.848236,169.039734 442.187103,159.256653 
	C441.872375,154.599625 443.388855,152.711685 447.425385,151.300095 
	C453.852875,149.052399 460.205902,146.536163 466.422180,143.757141 
	C471.710358,141.393021 473.835419,136.338333 472.176453,131.441193 
	C470.500580,126.494133 465.772919,123.715080 460.175842,125.101852 
	C455.362305,126.294479 450.729553,128.226578 446.033691,129.879379 
	C444.267914,130.500885 442.549347,131.256546 440.294373,132.156525 
	C439.792450,126.333038 439.575653,121.354469 438.886139,116.442261 
	C438.027557,110.325935 433.562378,106.496201 428.109802,106.722679 
	C422.651093,106.949417 418.588348,111.241661 418.239899,117.349945 
	C418.146515,118.986954 418.508240,120.651451 418.677643,122.301620 
	C419.221619,127.599602 419.675507,132.909424 420.356842,138.189819 
	C420.804779,141.661255 419.537842,143.726944 416.369385,145.258179 
	C406.661591,149.949661 399.407959,157.477295 393.368378,166.209717 
	C388.732605,172.912460 387.993164,180.037354 392.317078,188.035782 
M82.652794,247.849960 
	C76.257591,241.741241 68.785225,237.647964 60.195583,235.448715 
	C52.486153,233.474869 45.751972,234.793137 42.393143,239.610931 
	C38.069351,245.812881 39.635551,251.921539 43.213795,257.842712 
	C43.900181,258.978516 44.731472,260.027466 45.506218,261.109100 
	C52.045746,270.239044 61.321350,276.192139 70.343651,282.422119 
	C75.813370,286.199005 81.385712,289.827026 86.900116,293.539490 
	C90.186218,295.751831 90.165176,298.113312 87.359848,300.815979 
	C79.996368,307.910004 71.395111,312.633850 61.406033,314.891174 
	C57.844845,315.695953 54.233215,316.494110 50.849209,317.818207 
	C45.043655,320.089813 42.468372,325.364166 44.186707,330.564087 
	C45.852962,335.606415 50.712303,338.197144 56.694599,336.870728 
	C62.536789,335.575470 68.419090,334.288147 74.082321,332.394714 
	C85.797539,328.477905 95.986786,321.998199 104.136406,312.625305 
	C112.940697,302.499420 112.584763,290.243805 103.041321,280.881622 
	C99.876915,277.777374 97.068657,275.194794 97.934425,270.067413 
	C98.294952,267.932251 96.998093,265.053009 95.580223,263.171021 
	C91.703384,258.025177 87.361618,253.229599 82.652794,247.849960 
M250.880066,186.766663 
	C251.856888,193.859314 252.699554,200.973877 253.853180,208.037659 
	C254.770386,213.653854 259.129791,217.235855 264.188110,216.983215 
	C269.290192,216.728409 273.172394,212.800201 273.606476,207.081696 
	C273.793671,204.615448 273.511902,202.092346 273.245972,199.616257 
	C270.489471,173.954376 267.795776,148.285065 264.868408,122.642494 
	C263.112976,107.265121 261.257812,91.887474 258.881561,76.597893 
	C257.803436,69.660759 252.608963,66.084351 247.034836,66.956085 
	C241.232147,67.863548 237.767105,73.092293 238.646149,80.206749 
	C239.154816,84.323524 240.547455,88.336334 240.989395,92.455254 
	C244.329422,123.584068 247.532333,154.727600 250.880066,186.766663 
M365.671875,428.266357 
	C356.181183,445.948517 362.478790,469.607483 379.649017,479.585632 
	C384.205597,482.233673 389.224884,484.766327 394.322723,485.625702 
	C400.367340,486.644653 406.885529,486.631104 412.897064,485.484589 
	C417.379913,484.629639 419.539459,480.150299 418.946442,475.229462 
	C418.389526,470.608185 414.801270,467.414612 409.766541,466.803375 
	C408.564117,466.657410 407.357910,466.542816 405.110474,466.302002 
	C414.113983,458.065704 415.602295,448.313080 414.300995,437.767731 
	C412.644867,424.346466 394.351227,406.826385 375.650909,418.365784 
	C371.950775,420.649048 369.219757,424.502777 365.671875,428.266357 
M414.108673,308.647308 
	C407.524414,305.118408 398.860046,305.031738 394.147217,296.977905 
	C396.546051,296.622711 398.179749,296.428833 399.794983,296.133759 
	C409.953522,294.278320 416.686279,287.521393 417.443512,278.454010 
	C418.318573,267.975220 411.123505,257.106049 400.977478,253.579697 
	C392.284454,250.558350 382.121002,254.027985 376.739929,261.853973 
	C366.093811,277.337280 368.843628,303.052582 382.936340,315.575806 
	C392.670776,324.226135 405.051025,327.401489 417.340240,330.426208 
	C419.049652,330.846924 421.002930,330.550659 422.800171,330.289307 
	C428.197632,329.504486 431.817505,325.593201 431.904633,320.655731 
	C431.991699,315.719055 428.524536,311.819580 423.114868,310.715118 
	C420.356415,310.151947 417.611328,309.523346 414.108673,308.647308 
M346.626648,194.921173 
	C353.202240,199.985809 353.217194,199.992798 349.700134,207.510483 
	C348.714050,209.618210 347.614288,211.672867 346.562042,213.749512 
	C343.423340,219.943939 344.583893,225.732285 349.557312,228.676086 
	C354.546448,231.629196 360.677307,230.083954 363.953918,224.062195 
	C367.268677,217.970291 370.119690,211.509674 372.242493,204.910950 
	C376.090240,192.950409 373.437805,187.096100 362.550323,181.046005 
	C355.426331,177.087265 354.039734,169.308350 359.511719,163.126938 
	C365.023804,156.900253 370.877472,150.968719 376.242584,144.621384 
	C380.663422,139.391159 380.692505,133.341797 376.957886,129.130539 
	C373.198212,124.891022 367.544952,124.520226 361.565430,128.411804 
	C349.840027,136.042953 340.938904,146.396744 337.746765,159.944687 
	C334.842529,172.270737 333.538452,185.338150 346.626648,194.921173 
M353.491150,261.884674 
	C357.110077,260.244690 360.683502,258.493164 364.359192,256.992218 
	C369.242218,254.998230 371.977539,250.859192 371.282410,246.123291 
	C370.581024,241.345001 366.802399,237.656555 361.595612,237.766312 
	C358.040710,237.841232 354.226440,238.574524 351.039215,240.089005 
	C346.266022,242.357071 341.697693,245.246613 337.469788,248.438156 
	C321.263000,260.672150 313.466217,277.753876 309.920227,297.217194 
	C308.843628,303.126404 307.340424,308.774811 302.912567,313.434509 
	C299.741516,316.771576 299.835724,321.157898 302.421204,325.013184 
	C304.976227,328.823029 309.031860,330.912506 313.219238,329.122192 
	C316.795471,327.593262 320.864044,324.914673 322.502380,321.638336 
	C325.805573,315.032623 328.302399,307.826813 329.879425,300.595428 
	C333.257172,285.107239 339.264648,271.486847 353.491150,261.884674 
M302.048340,150.859604 
	C296.040283,152.849609 293.896423,155.460892 293.473907,161.577682 
	C293.268005,164.559036 293.184662,167.555618 293.201141,170.544464 
	C293.300049,188.469620 293.231323,206.399872 293.680481,224.316849 
	C293.854065,231.241150 299.002197,235.662292 304.852692,235.200470 
	C310.866302,234.725739 314.335266,229.862595 313.916504,222.633759 
	C313.445770,214.508011 312.702087,206.377869 312.703857,198.249771 
	C312.706421,186.462326 313.463013,174.676056 313.529602,162.887207 
	C313.575134,154.824539 310.316711,151.489136 302.048340,150.859604 
M469.902405,460.535156 
	C471.566772,453.922607 473.091339,447.270874 474.931183,440.707520 
	C477.179657,432.686646 479.090759,424.253906 489.707672,423.176636 
	C490.634583,423.082611 491.566193,422.432983 492.373840,421.867493 
	C496.163696,419.213989 497.884308,415.603302 496.630249,411.051361 
	C495.385468,406.533203 492.146362,404.137665 487.511932,403.810883 
	C476.851288,403.059204 465.042206,408.958496 461.545197,418.925629 
	C456.165863,434.257721 452.087402,450.065369 447.933075,465.796967 
	C446.614410,470.790466 449.930359,475.265106 454.515991,476.749786 
	C459.242706,478.280151 464.269257,476.219482 466.541687,471.285217 
	C467.987701,468.145447 468.685516,464.661133 469.902405,460.535156 
M333.723145,131.638016 
	C336.410614,120.316254 327.397705,108.080696 320.594666,103.303566 
	C316.099915,100.147339 310.245422,101.719444 306.990082,106.304718 
	C303.489716,111.235146 304.281769,117.172012 308.267853,121.263336 
	C310.791199,123.853256 312.934753,127.027100 314.479645,130.301819 
	C316.380890,134.331955 318.642548,137.580475 323.312164,138.112015 
	C327.948761,138.639771 331.335724,136.587524 333.723145,131.638016 
M213.506851,176.235886 
	C221.057663,174.943939 224.411804,170.843597 223.026291,163.355560 
	C222.004547,157.833542 220.230286,152.399002 218.280426,147.113968 
	C215.993866,140.916412 210.645584,138.297455 205.292862,140.164185 
	C200.109344,141.971909 197.662933,147.058563 199.265594,153.247803 
	C200.557648,158.237381 202.109589,163.161102 203.605347,168.096100 
	C204.976929,172.621384 207.786987,175.598297 213.506851,176.235886 
z"/>
<path fill="#050505" opacity="1.000000" stroke="none" 
	d="
M297.468628,513.000000 
	C295.288788,505.573883 293.277557,498.201355 291.938660,490.708679 
	C290.065613,480.226501 288.876526,469.622192 287.008972,459.138855 
	C286.349731,455.438263 284.747772,451.856934 283.238647,448.367126 
	C280.600830,442.267395 281.882172,436.677124 286.826599,433.976776 
	C291.755768,431.284790 297.348602,433.042023 300.903168,438.657074 
	C302.406006,441.031097 303.590393,443.640076 304.651031,446.251312 
	C305.711884,448.863068 306.437561,451.611023 307.009369,453.372589 
	C311.038330,447.167175 314.966431,440.124817 319.867462,433.841370 
	C324.989075,427.274994 334.431366,425.617859 342.143677,428.850189 
	C349.487518,431.928101 353.108459,441.109833 350.497864,449.586609 
	C347.488342,459.358765 340.098267,464.191559 330.841492,465.989044 
	C325.263580,467.072205 324.068634,470.074310 322.982056,474.888245 
	C320.207062,487.182373 318.808289,499.501099 319.919800,512.536743 
	C312.645752,513.000000 305.291504,513.000000 297.468628,513.000000 
z"/>
<path fill="#080808" opacity="1.000000" stroke="none" 
	d="
M239.468536,513.000000 
	C239.437149,504.217346 240.046524,495.439301 240.279968,486.651245 
	C241.061768,457.220093 241.731888,427.785828 242.375198,398.351257 
	C242.443970,395.205566 242.155289,392.040497 241.859863,388.900696 
	C241.214035,382.036499 244.816574,377.061798 251.028839,376.411713 
	C257.043365,375.782379 262.189728,380.172821 262.443390,386.930969 
	C262.773804,395.733185 262.700653,404.562653 262.469177,413.371674 
	C261.604187,446.289246 260.603668,479.203247 259.826965,512.559326 
	C253.312363,513.000000 246.624710,513.000000 239.468536,513.000000 
z"/>
<path fill="#060606" opacity="1.000000" stroke="none" 
	d="
M53.253807,391.241638 
	C55.262970,390.546082 57.282528,389.878967 59.279488,389.149963 
	C67.832588,386.027740 76.379028,382.887238 85.434189,379.567810 
	C82.849907,371.746948 79.952492,363.315002 77.316948,354.801941 
	C76.502129,352.170044 75.800667,349.247925 76.109756,346.581848 
	C76.594818,342.397797 79.523323,339.767639 83.690536,338.988220 
	C88.302750,338.125549 92.235863,339.888794 94.226723,343.952057 
	C96.847595,349.301208 98.729111,355.020782 100.800446,360.628418 
	C102.527679,365.304504 103.781097,370.177917 105.806854,374.712708 
	C106.961533,377.297516 109.346687,379.308197 110.986656,381.708008 
	C112.446297,383.843872 114.768974,386.176086 114.736656,388.392883 
	C114.651634,394.225555 117.721870,398.500549 120.385452,403.050110 
	C122.707001,407.015442 125.233009,410.861084 127.652046,414.733002 
	C128.334122,414.349487 128.773819,414.247467 128.815140,414.058411 
	C133.505692,392.594727 152.081070,382.996796 171.568359,382.765930 
	C183.079391,382.629547 194.851608,382.635773 205.907333,387.676117 
	C214.290314,391.497986 219.384399,397.763153 222.291885,406.127502 
	C224.313995,411.944733 223.015671,417.585144 218.189529,420.997284 
	C211.887939,425.452667 205.039566,429.455170 197.885849,432.286774 
	C191.794113,434.698059 184.970032,435.375854 178.409622,436.453430 
	C171.954712,437.513672 166.687912,433.756500 165.825699,427.956787 
	C164.962326,422.149231 168.876419,417.502136 175.464005,416.163849 
	C182.296005,414.775848 189.106445,413.259857 195.871048,411.577545 
	C197.532516,411.164337 198.978851,409.886108 200.908417,408.786499 
	C199.803696,407.899475 199.266312,407.197906 198.567093,406.946686 
	C186.025177,402.440582 173.121277,401.029877 160.446075,405.394257 
	C149.312820,409.227722 144.475250,423.769775 150.065857,435.199249 
	C155.898392,447.123291 163.073837,458.029266 175.359909,464.581818 
	C184.991714,469.718750 195.101547,472.464325 206.015427,471.786072 
	C212.966278,471.354065 217.452026,474.025177 218.536606,479.635468 
	C219.602142,485.147369 215.860245,490.913635 209.216843,491.620758 
	C202.529617,492.332611 195.459045,492.290680 188.911331,490.903687 
	C172.673965,487.464264 157.904480,480.828949 147.051804,467.488220 
	C146.634018,466.974731 146.165253,466.492920 145.664383,466.061188 
	C145.435867,465.864197 145.071152,465.825256 144.777222,465.717926 
	C143.505951,467.603485 142.647797,470.278717 140.890091,471.160278 
	C138.138031,472.540497 134.672180,473.555695 131.700684,473.185303 
	C127.531952,472.665649 125.569611,469.104950 124.685616,465.042389 
	C123.557640,459.858551 122.290375,454.703278 120.995842,449.557678 
	C116.591232,432.049927 104.671310,418.393097 96.777145,402.669586 
	C96.175575,401.471344 93.853470,400.298828 92.482689,400.453918 
	C78.117546,402.079498 65.137810,407.404297 53.542519,415.995667 
	C50.586128,418.186218 50.362183,425.887146 53.154655,429.232727 
	C56.882698,433.699097 57.035725,437.961731 54.042648,442.959259 
	C52.924583,444.826111 53.043476,447.693329 53.264793,450.041595 
	C53.591190,453.504761 54.756523,456.885803 55.126709,460.348633 
	C55.716236,465.863251 52.755520,470.064575 47.807892,471.332489 
	C43.063061,472.548492 37.835140,470.264099 36.184132,465.081238 
	C34.331615,459.265839 33.306980,453.127014 32.530773,447.051178 
	C32.076183,443.492859 31.224407,441.014954 27.902262,439.006989 
	C20.441334,434.497406 18.101379,427.075134 23.471634,420.313538 
	C30.284964,411.734955 31.050409,402.286591 31.318954,392.250732 
	C31.474676,386.431244 31.906336,380.593689 32.659744,374.822479 
	C33.510826,368.303070 37.467201,364.371002 42.682240,364.128693 
	C47.863873,363.887878 52.606159,367.435913 53.468437,373.928528 
	C54.164169,379.167114 53.033352,384.648285 52.502762,390.502808 
	C52.319195,391.237610 52.345726,391.491455 52.372261,391.745270 
	C52.666115,391.577393 52.959965,391.409515 53.253807,391.241638 
z"/>
<path fill="#060606" opacity="1.000000" stroke="none" 
	d="
M9.588935,213.422882 
	C12.255919,166.409988 14.785397,119.834602 22.965853,73.829605 
	C24.648741,64.365417 27.632612,55.105610 30.430305,45.876945 
	C32.051563,40.528954 35.446445,36.359623 41.519516,35.645416 
	C47.290295,34.966755 50.568089,38.632011 53.744160,42.789471 
	C63.381332,55.404488 68.451294,70.259377 72.153275,85.136452 
	C79.664520,115.321747 85.526299,145.919022 91.984238,176.364258 
	C95.303413,192.012161 98.684723,207.626083 105.610313,222.195389 
	C105.967484,222.946777 106.300362,223.712708 106.593361,224.491150 
	C108.839554,230.458710 107.126587,235.803146 102.211304,238.204117 
	C97.188385,240.657669 91.138824,238.702332 88.294678,233.023712 
	C85.472374,227.388702 82.556564,221.598541 81.064232,215.536133 
	C75.974274,194.858795 71.397156,174.052780 66.807327,153.255478 
	C62.189491,132.331314 57.790295,111.358879 53.233650,90.120262 
	C52.050461,90.630539 51.412682,90.694130 51.245525,91.008194 
	C44.784866,103.146652 39.448792,115.604095 39.588066,129.766418 
	C39.615021,132.507721 40.488579,133.343994 43.086853,133.993103 
	C46.891804,134.943710 50.768394,136.249084 54.110493,138.246506 
	C58.175529,140.676010 59.805305,144.722153 58.220676,149.487976 
	C56.651711,154.206696 53.025883,156.393539 48.270622,156.307541 
	C44.831627,156.245346 41.405342,155.480377 37.386406,154.951584 
	C36.682461,160.859436 35.947605,166.587204 35.325455,172.327179 
	C33.100983,192.850143 30.948593,213.381027 28.674255,233.898407 
	C28.364832,236.689789 27.844040,239.546310 26.847210,242.153214 
	C25.135254,246.630325 21.640257,249.174881 16.762110,248.773346 
	C11.921949,248.374924 8.409463,245.454803 7.895783,240.684906 
	C7.368930,235.792679 7.946548,230.761093 8.263989,225.804794 
	C8.519254,221.819305 9.107659,217.855133 9.588935,213.422882 
z"/>
<path fill="#050505" opacity="1.000000" stroke="none" 
	d="
M136.238129,182.137909 
	C136.762894,180.967667 137.287659,179.797409 138.017395,178.092422 
	C138.266006,176.998474 138.309616,176.439285 138.353226,175.880081 
	C138.535522,175.473587 138.717834,175.067093 139.127563,174.127747 
	C139.435242,173.033279 139.515503,172.471664 139.595749,171.910049 
	C140.067261,170.195587 140.538788,168.481140 141.234314,166.190475 
	C141.500534,165.045776 141.542770,164.477295 141.584991,163.908798 
	C144.158142,157.723557 146.460907,151.404068 149.433701,145.417282 
	C150.673172,142.921143 153.338898,141.133224 155.918457,138.850601 
	C156.977142,138.400894 157.473495,138.123886 157.969864,137.846878 
	C159.372543,137.856293 160.775223,137.865692 162.797821,138.087875 
	C163.974747,138.406509 164.531754,138.512360 165.088745,138.618210 
	C168.380325,142.522842 171.671921,146.427490 175.138351,150.995514 
	C176.653564,155.324966 177.993927,158.991043 179.334290,162.657104 
	C179.634018,163.849136 179.933731,165.041153 180.337662,166.895721 
	C181.014252,169.028473 181.586624,170.498672 182.158997,171.968872 
	C182.213547,172.412308 182.268097,172.855743 182.384918,173.855743 
	C182.665573,174.934753 182.883942,175.457184 183.102325,175.979614 
	C183.179840,177.033554 183.257355,178.087494 183.364090,179.818207 
	C183.633759,181.322388 183.874207,182.149796 184.114655,182.977203 
	C184.222672,184.034805 184.330704,185.092407 184.482422,186.773315 
	C184.703201,187.927231 184.880264,188.457855 185.057327,188.988480 
	C185.159744,190.043777 185.262146,191.099060 185.402802,192.777191 
	C185.636139,193.931549 185.831223,194.463074 186.026306,194.994614 
	C186.125351,196.047653 186.224411,197.100708 186.364624,198.821747 
	C186.645889,200.318146 186.885971,201.146576 187.126068,201.974991 
	C187.180634,202.716873 187.235184,203.458755 187.321732,204.849579 
	C187.602310,206.325699 187.850906,207.152893 188.099518,207.980087 
	C188.220627,209.356689 188.341736,210.733307 188.508728,212.754364 
	C188.736343,213.925964 188.918060,214.453125 189.099777,214.980286 
	C189.421646,217.052032 189.743530,219.123764 190.146851,221.838745 
	C190.490448,222.986954 190.752609,223.491928 191.014771,223.996918 
	C192.146332,227.518631 193.277893,231.040344 194.705078,235.180893 
	C198.675415,241.897644 197.464279,247.126495 192.119766,251.349655 
	C196.508438,256.364624 200.728012,261.186401 204.947586,266.008179 
	C205.762207,269.865356 207.211899,273.718414 207.236710,277.580688 
	C207.270599,282.852325 203.491470,286.516907 198.741150,287.137787 
	C193.990753,287.758698 190.156601,284.997803 187.968231,280.066376 
	C186.587967,276.955933 184.517929,274.151611 182.386292,270.770996 
	C181.007355,270.208191 179.999420,270.084351 178.991486,269.960510 
	C175.617691,272.927185 172.243912,275.893829 168.496613,279.331085 
	C167.855621,280.560242 167.588150,281.318787 167.320679,282.077332 
	C164.511734,288.157501 160.232971,293.780487 161.457382,301.749817 
	C161.701416,302.928497 161.892014,303.455994 162.082626,303.983490 
	C163.672882,311.667542 172.631668,317.980438 182.571671,318.391052 
	C185.897964,318.528473 189.263123,318.326111 192.546661,318.761169 
	C197.953125,319.477509 201.463013,323.556976 201.438904,328.544830 
	C201.414795,333.532410 197.895340,337.585144 192.461502,338.275421 
	C179.438324,339.929901 167.266083,337.754547 156.454468,329.796356 
	C141.812729,319.018829 136.685547,300.733887 143.904663,284.016968 
	C146.473785,278.067780 149.043610,272.020905 152.482986,266.567200 
	C158.501862,257.023193 167.161057,250.771454 179.018936,248.660355 
	C177.606079,246.144836 176.344467,243.898575 174.918243,241.060425 
	C174.349899,239.768402 173.946182,239.068314 173.542465,238.368210 
	C173.301773,237.483536 173.061096,236.598846 172.728424,235.130096 
	C172.385208,234.038345 172.133987,233.530701 171.882782,233.023041 
	C171.830643,232.580963 171.778488,232.138870 171.645721,231.131592 
	C171.320511,230.055298 171.075912,229.544189 170.831299,229.033096 
	C170.778183,228.588516 170.725082,228.143951 170.598389,227.141724 
	C170.289917,226.067764 170.055023,225.551437 169.820145,225.035110 
	C169.743103,224.291351 169.666061,223.547592 169.563339,222.204224 
	C169.344025,221.072662 169.150391,220.540710 168.956757,220.008759 
	C168.843857,218.955978 168.730972,217.903214 168.593079,216.227814 
	C168.374680,215.070953 168.181259,214.536728 167.987839,214.002502 
	C167.904968,212.951828 167.822113,211.901154 167.714020,210.172638 
	C167.431992,208.668655 167.175171,207.842529 166.918365,207.016403 
	C166.821716,205.961716 166.725067,204.907043 166.594467,203.225403 
	C166.361618,202.068100 166.162720,201.537750 165.963806,201.007401 
	C165.875473,199.955688 165.787125,198.903961 165.658417,197.175552 
	C165.376297,195.673035 165.134521,194.847198 164.892761,194.021378 
	C164.792587,192.964493 164.692398,191.907593 164.558670,190.227417 
	C164.337112,189.072067 164.149109,188.539993 163.961105,188.007935 
	C163.857513,186.954315 163.753906,185.900711 163.606018,184.180084 
	C163.327072,182.684769 163.092392,181.856445 162.857727,181.028122 
	C162.735962,180.178040 162.614182,179.327957 162.369263,177.863632 
	C161.782364,175.895279 161.318634,174.541168 160.474976,172.077698 
	C159.629929,175.843430 159.040451,178.470276 158.450974,181.097122 
	C158.007401,182.492813 157.563828,183.888504 156.906937,185.857132 
	C156.616837,186.986206 156.540054,187.542358 156.463287,188.098511 
	C156.316162,188.512558 156.169037,188.926590 155.801300,189.867706 
	C155.532150,190.961243 155.483612,191.527725 155.435059,192.094208 
	C155.071564,193.264038 154.708069,194.433868 154.117462,196.194061 
	C153.773956,197.559006 153.657562,198.333572 153.541168,199.108139 
	C153.390884,199.522827 153.240585,199.937500 152.914001,200.904770 
	C152.738953,202.012283 152.740189,202.567184 152.741425,203.122101 
	C152.527344,203.836639 152.313263,204.551178 151.909210,205.855377 
	C151.666107,207.000320 151.612976,207.555573 151.559830,208.110840 
	C151.410400,208.525467 151.260971,208.940079 150.911865,209.941528 
	C150.621841,211.384003 150.531464,212.239639 150.441101,213.095291 
	C150.304596,213.513138 150.168091,213.930969 149.850052,214.893188 
	C149.639648,215.995941 149.610779,216.554306 149.581909,217.112686 
	C149.390045,217.828278 149.198181,218.543869 148.816223,219.841675 
	C148.603836,220.985947 148.581528,221.548004 148.559204,222.110077 
	C148.406631,222.524323 148.254074,222.938583 147.918793,223.902649 
	C147.705246,225.007797 147.674393,225.563126 147.643555,226.118454 
	C147.431274,226.830200 147.219009,227.541931 146.795990,228.826782 
	C146.529938,229.963943 146.474640,230.527969 146.419342,231.092010 
	C145.672638,233.488602 144.925949,235.885193 143.961060,238.859497 
	C143.689102,239.996155 143.635345,240.555084 143.581604,241.114014 
	C142.105911,245.498642 140.630234,249.883255 138.910294,254.837326 
	C138.569183,255.966354 138.472321,256.525940 138.375458,257.085510 
	C136.132019,262.448853 135.309158,268.642761 129.088425,272.175873 
	C128.029541,272.620972 127.532326,272.899261 127.035110,273.177551 
	C125.633026,273.150177 124.230957,273.122803 122.191849,272.844330 
	C120.369591,272.062744 119.184357,271.532257 117.999115,271.001740 
	C117.905045,270.672424 117.718613,270.408264 117.169174,269.779846 
	C116.201569,268.245911 115.504608,267.141418 114.807648,266.036957 
	C114.746475,265.596527 114.685295,265.156097 114.583427,263.960022 
	C114.444481,258.428864 114.346222,253.653366 114.247955,248.877869 
	C114.501488,246.214813 114.755035,243.551758 115.186356,240.185211 
	C115.439896,238.624329 115.515648,237.766937 115.591400,236.909531 
	C116.047997,234.864929 116.504593,232.820312 117.133972,230.163696 
	C117.327065,228.995300 117.347359,228.438934 117.367661,227.882553 
	C117.565086,227.166855 117.762520,226.451172 118.127640,225.090454 
	C118.289185,223.589813 118.283035,222.734207 118.276871,221.878586 
	C118.492683,220.845139 118.708496,219.811691 119.102943,218.161957 
	C119.286865,216.990143 119.292145,216.434601 119.297432,215.879059 
	C119.537384,214.850571 119.777336,213.822067 120.208572,212.189972 
	C120.437233,211.023621 120.474602,210.460876 120.511971,209.898117 
	C120.823616,209.040039 121.135262,208.181961 121.731003,206.782501 
	C122.241684,205.469330 122.468277,204.697540 122.694870,203.925766 
	C126.322128,197.441422 129.949387,190.957077 134.080231,184.170624 
	C135.135269,183.291641 135.686691,182.714783 136.238129,182.137909 
z"/>
<path fill="#060606" opacity="1.000000" stroke="none" 
	d="
M282.474121,305.372986 
	C283.012970,320.191315 278.460388,333.044861 270.240845,344.578491 
	C261.633453,356.656372 243.499832,358.065369 231.636032,347.915314 
	C215.696411,334.278198 211.249878,314.418793 219.245209,295.001678 
	C225.755417,279.191315 236.163712,268.156097 253.366776,264.406586 
	C260.254120,262.905426 266.707153,264.444397 272.719238,267.387848 
	C279.592377,270.752869 281.308319,276.346313 278.880463,283.653320 
	C278.411316,285.065369 278.688690,286.836609 278.985260,288.371918 
	C280.054504,293.907104 281.279144,299.412292 282.474121,305.372986 
M236.742889,306.564148 
	C233.742065,316.806946 236.700241,325.256439 244.627319,332.074158 
	C248.801010,335.663727 252.380310,334.822083 255.304337,330.179077 
	C263.627563,316.962769 264.023407,303.400604 257.803223,289.249725 
	C255.921844,284.969604 253.693253,284.731812 250.190567,286.993744 
	C243.240265,291.482086 239.479919,298.177094 236.742889,306.564148 
z"/>
<path fill="#070707" opacity="1.000000" stroke="none" 
	d="
M392.122253,187.718399 
	C387.993164,180.037354 388.732605,172.912460 393.368378,166.209717 
	C399.407959,157.477295 406.661591,149.949661 416.369385,145.258179 
	C419.537842,143.726944 420.804779,141.661255 420.356842,138.189819 
	C419.675507,132.909424 419.221619,127.599602 418.677643,122.301620 
	C418.508240,120.651451 418.146515,118.986954 418.239899,117.349945 
	C418.588348,111.241661 422.651093,106.949417 428.109802,106.722679 
	C433.562378,106.496201 438.027557,110.325935 438.886139,116.442261 
	C439.575653,121.354469 439.792450,126.333038 440.294373,132.156525 
	C442.549347,131.256546 444.267914,130.500885 446.033691,129.879379 
	C450.729553,128.226578 455.362305,126.294479 460.175842,125.101852 
	C465.772919,123.715080 470.500580,126.494133 472.176453,131.441193 
	C473.835419,136.338333 471.710358,141.393021 466.422180,143.757141 
	C460.205902,146.536163 453.852875,149.052399 447.425385,151.300095 
	C443.388855,152.711685 441.872375,154.599625 442.187103,159.256653 
	C442.848236,169.039734 442.593506,178.889679 442.577728,188.711945 
	C442.565643,196.222336 439.997650,200.362213 434.841156,201.695190 
	C429.927094,202.965485 426.157349,200.703140 422.429626,194.246613 
	C416.550751,202.658417 411.848724,203.525742 403.337494,197.328552 
	C399.462799,194.507309 395.978455,191.149963 392.122253,187.718399 
M411.845459,178.485504 
	C415.285461,181.331894 418.725464,184.178284 421.989014,186.878662 
	C421.989014,180.073578 421.989014,173.124237 421.989014,166.174896 
	C421.460419,165.903473 420.931854,165.632050 420.403259,165.360626 
	C417.373810,169.566299 414.344360,173.771957 411.845459,178.485504 
z"/>
<path fill="#060606" opacity="1.000000" stroke="none" 
	d="
M82.928383,248.072632 
	C87.361618,253.229599 91.703384,258.025177 95.580223,263.171021 
	C96.998093,265.053009 98.294952,267.932251 97.934425,270.067413 
	C97.068657,275.194794 99.876915,277.777374 103.041321,280.881622 
	C112.584763,290.243805 112.940697,302.499420 104.136406,312.625305 
	C95.986786,321.998199 85.797539,328.477905 74.082321,332.394714 
	C68.419090,334.288147 62.536789,335.575470 56.694599,336.870728 
	C50.712303,338.197144 45.852962,335.606415 44.186707,330.564087 
	C42.468372,325.364166 45.043655,320.089813 50.849209,317.818207 
	C54.233215,316.494110 57.844845,315.695953 61.406033,314.891174 
	C71.395111,312.633850 79.996368,307.910004 87.359848,300.815979 
	C90.165176,298.113312 90.186218,295.751831 86.900116,293.539490 
	C81.385712,289.827026 75.813370,286.199005 70.343651,282.422119 
	C61.321350,276.192139 52.045746,270.239044 45.506218,261.109100 
	C44.731472,260.027466 43.900181,258.978516 43.213795,257.842712 
	C39.635551,251.921539 38.069351,245.812881 42.393143,239.610931 
	C45.751972,234.793137 52.486153,233.474869 60.195583,235.448715 
	C68.785225,237.647964 76.257591,241.741241 82.928383,248.072632 
z"/>
<path fill="#070707" opacity="1.000000" stroke="none" 
	d="
M250.829056,186.316589 
	C247.532333,154.727600 244.329422,123.584068 240.989395,92.455254 
	C240.547455,88.336334 239.154816,84.323524 238.646149,80.206749 
	C237.767105,73.092293 241.232147,67.863548 247.034836,66.956085 
	C252.608963,66.084351 257.803436,69.660759 258.881561,76.597893 
	C261.257812,91.887474 263.112976,107.265121 264.868408,122.642494 
	C267.795776,148.285065 270.489471,173.954376 273.245972,199.616257 
	C273.511902,202.092346 273.793671,204.615448 273.606476,207.081696 
	C273.172394,212.800201 269.290192,216.728409 264.188110,216.983215 
	C259.129791,217.235855 254.770386,213.653854 253.853180,208.037659 
	C252.699554,200.973877 251.856888,193.859314 250.829056,186.316589 
z"/>
<path fill="#060606" opacity="1.000000" stroke="none" 
	d="
M365.856842,427.949310 
	C369.219757,424.502777 371.950775,420.649048 375.650909,418.365784 
	C394.351227,406.826385 412.644867,424.346466 414.300995,437.767731 
	C415.602295,448.313080 414.113983,458.065704 405.110474,466.302002 
	C407.357910,466.542816 408.564117,466.657410 409.766541,466.803375 
	C414.801270,467.414612 418.389526,470.608185 418.946442,475.229462 
	C419.539459,480.150299 417.379913,484.629639 412.897064,485.484589 
	C406.885529,486.631104 400.367340,486.644653 394.322723,485.625702 
	C389.224884,484.766327 384.205597,482.233673 379.649017,479.585632 
	C362.478790,469.607483 356.181183,445.948517 365.856842,427.949310 
M393.367126,448.653198 
	C393.712830,447.224152 394.272064,445.808716 394.363953,444.363525 
	C394.635040,440.101379 391.481415,435.223358 388.285248,435.363312 
	C383.625671,435.567291 382.652679,439.248444 382.062256,443.013428 
	C381.934204,443.830048 381.595673,444.729126 381.803528,445.462891 
	C382.664185,448.501709 383.697327,451.491669 384.667114,454.499573 
	C387.232788,453.021851 389.804138,451.553772 392.355591,450.051910 
	C392.619263,449.896729 392.764343,449.540039 393.367126,448.653198 
z"/>
<path fill="#060606" opacity="1.000000" stroke="none" 
	d="
M414.484436,308.785797 
	C417.611328,309.523346 420.356415,310.151947 423.114868,310.715118 
	C428.524536,311.819580 431.991699,315.719055 431.904633,320.655731 
	C431.817505,325.593201 428.197632,329.504486 422.800171,330.289307 
	C421.002930,330.550659 419.049652,330.846924 417.340240,330.426208 
	C405.051025,327.401489 392.670776,324.226135 382.936340,315.575806 
	C368.843628,303.052582 366.093811,277.337280 376.739929,261.853973 
	C382.121002,254.027985 392.284454,250.558350 400.977478,253.579697 
	C411.123505,257.106049 418.318573,267.975220 417.443512,278.454010 
	C416.686279,287.521393 409.953522,294.278320 399.794983,296.133759 
	C398.179749,296.428833 396.546051,296.622711 394.147217,296.977905 
	C398.860046,305.031738 407.524414,305.118408 414.484436,308.785797 
z"/>
<path fill="#070707" opacity="1.000000" stroke="none" 
	d="
M346.348389,194.691559 
	C333.538452,185.338150 334.842529,172.270737 337.746765,159.944687 
	C340.938904,146.396744 349.840027,136.042953 361.565430,128.411804 
	C367.544952,124.520226 373.198212,124.891022 376.957886,129.130539 
	C380.692505,133.341797 380.663422,139.391159 376.242584,144.621384 
	C370.877472,150.968719 365.023804,156.900253 359.511719,163.126938 
	C354.039734,169.308350 355.426331,177.087265 362.550323,181.046005 
	C373.437805,187.096100 376.090240,192.950409 372.242493,204.910950 
	C370.119690,211.509674 367.268677,217.970291 363.953918,224.062195 
	C360.677307,230.083954 354.546448,231.629196 349.557312,228.676086 
	C344.583893,225.732285 343.423340,219.943939 346.562042,213.749512 
	C347.614288,211.672867 348.714050,209.618210 349.700134,207.510483 
	C353.217194,199.992798 353.202240,199.985809 346.348389,194.691559 
z"/>
<path fill="#060606" opacity="1.000000" stroke="none" 
	d="
M353.184265,262.080017 
	C339.264648,271.486847 333.257172,285.107239 329.879425,300.595428 
	C328.302399,307.826813 325.805573,315.032623 322.502380,321.638336 
	C320.864044,324.914673 316.795471,327.593262 313.219238,329.122192 
	C309.031860,330.912506 304.976227,328.823029 302.421204,325.013184 
	C299.835724,321.157898 299.741516,316.771576 302.912567,313.434509 
	C307.340424,308.774811 308.843628,303.126404 309.920227,297.217194 
	C313.466217,277.753876 321.263000,260.672150 337.469788,248.438156 
	C341.697693,245.246613 346.266022,242.357071 351.039215,240.089005 
	C354.226440,238.574524 358.040710,237.841232 361.595612,237.766312 
	C366.802399,237.656555 370.581024,241.345001 371.282410,246.123291 
	C371.977539,250.859192 369.242218,254.998230 364.359192,256.992218 
	C360.683502,258.493164 357.110077,260.244690 353.184265,262.080017 
z"/>
<path fill="#0A0A0A" opacity="1.000000" stroke="none" 
	d="
M302.413086,150.817902 
	C310.316711,151.489136 313.575134,154.824539 313.529602,162.887207 
	C313.463013,174.676056 312.706421,186.462326 312.703857,198.249771 
	C312.702087,206.377869 313.445770,214.508011 313.916504,222.633759 
	C314.335266,229.862595 310.866302,234.725739 304.852692,235.200470 
	C299.002197,235.662292 293.854065,231.241150 293.680481,224.316849 
	C293.231323,206.399872 293.300049,188.469620 293.201141,170.544464 
	C293.184662,167.555618 293.268005,164.559036 293.473907,161.577682 
	C293.896423,155.460892 296.040283,152.849609 302.413086,150.817902 
z"/>
<path fill="#070707" opacity="1.000000" stroke="none" 
	d="
M469.810608,460.933228 
	C468.685516,464.661133 467.987701,468.145447 466.541687,471.285217 
	C464.269257,476.219482 459.242706,478.280151 454.515991,476.749786 
	C449.930359,475.265106 446.614410,470.790466 447.933075,465.796967 
	C452.087402,450.065369 456.165863,434.257721 461.545197,418.925629 
	C465.042206,408.958496 476.851288,403.059204 487.511932,403.810883 
	C492.146362,404.137665 495.385468,406.533203 496.630249,411.051361 
	C497.884308,415.603302 496.163696,419.213989 492.373840,421.867493 
	C491.566193,422.432983 490.634583,423.082611 489.707672,423.176636 
	C479.090759,424.253906 477.179657,432.686646 474.931183,440.707520 
	C473.091339,447.270874 471.566772,453.922607 469.810608,460.933228 
z"/>
<path fill="#060606" opacity="1.000000" stroke="none" 
	d="
M207.026413,190.945435 
	C208.753662,194.041290 210.480911,197.137131 212.298065,200.833908 
	C212.633789,201.948318 212.879608,202.461777 213.125427,202.975250 
	C213.198074,203.715530 213.270721,204.455826 213.365082,205.840637 
	C213.622803,207.317139 213.858826,208.149094 214.094849,208.981049 
	C214.183838,210.035446 214.272812,211.089844 214.384842,212.772964 
	C214.611633,213.933151 214.815369,214.464630 215.019089,214.996094 
	C215.734024,218.716095 216.448959,222.436081 217.259979,226.804993 
	C217.604172,227.962631 217.852295,228.471359 218.100403,228.980072 
	C218.191757,230.031693 218.283112,231.083298 218.380920,232.811920 
	C218.591690,234.325943 218.796021,235.162933 219.000336,235.999939 
	C220.754562,241.732986 222.508789,247.466034 224.342422,253.807159 
	C224.646118,254.937073 224.870392,255.458908 225.094681,255.980743 
	C225.060715,256.438965 225.026733,256.897217 224.869629,257.978455 
	C222.271881,266.343872 215.730408,269.789948 210.201340,265.626221 
	C207.518402,263.605865 205.455734,260.091949 204.313156,256.833160 
	C201.811005,249.696671 200.075195,242.291458 198.026428,234.996002 
	C197.577362,232.945831 197.128311,230.895660 196.646454,228.217590 
	C196.405060,227.060608 196.196472,226.531525 195.987900,226.002441 
	C195.909378,225.263519 195.830856,224.524597 195.693939,223.177612 
	C195.409958,222.049179 195.184341,221.528824 194.958725,221.008469 
	C194.850784,219.955734 194.742859,218.903000 194.609070,217.225037 
	C194.385452,216.067230 194.187714,215.534653 193.989960,215.002090 
	C193.863007,213.632065 193.736069,212.262024 193.589478,210.245758 
	C193.359818,209.070374 193.149811,208.541245 192.939804,208.012115 
	C192.254044,204.290878 191.568283,200.569641 191.131638,196.196228 
	C191.912796,194.358871 192.444855,193.173706 192.976898,191.988525 
	C193.305954,191.889572 193.571259,191.700943 194.208160,191.164001 
	C195.755676,190.237183 196.867874,189.569016 197.980072,188.900848 
	C199.378738,188.896439 200.777390,188.892044 202.817993,189.132050 
	C204.648758,189.899445 205.837585,190.422440 207.026413,190.945435 
z"/>
<path fill="#070707" opacity="1.000000" stroke="none" 
	d="
M333.567810,132.019623 
	C331.335724,136.587524 327.948761,138.639771 323.312164,138.112015 
	C318.642548,137.580475 316.380890,134.331955 314.479645,130.301819 
	C312.934753,127.027100 310.791199,123.853256 308.267853,121.263336 
	C304.281769,117.172012 303.489716,111.235146 306.990082,106.304718 
	C310.245422,101.719444 316.099915,100.147339 320.594666,103.303566 
	C327.397705,108.080696 336.410614,120.316254 333.567810,132.019623 
z"/>
<path fill="#080808" opacity="1.000000" stroke="none" 
	d="
M213.096207,176.220276 
	C207.786987,175.598297 204.976929,172.621384 203.605347,168.096100 
	C202.109589,163.161102 200.557648,158.237381 199.265594,153.247803 
	C197.662933,147.058563 200.109344,141.971909 205.292862,140.164185 
	C210.645584,138.297455 215.993866,140.916412 218.280426,147.113968 
	C220.230286,152.399002 222.004547,157.833542 223.026291,163.355560 
	C224.411804,170.843597 221.057663,174.943939 213.096207,176.220276 
z"/>
<path fill="#CCCCCC" opacity="1.000000" stroke="none" 
	d="
M197.640213,235.017761 
	C200.075195,242.291458 201.811005,249.696671 204.313156,256.833160 
	C205.455734,260.091949 207.518402,263.605865 210.201340,265.626221 
	C215.730408,269.789948 222.271881,266.343872 224.952255,258.314331 
	C226.552856,264.235443 219.758591,270.223694 213.170685,268.491241 
	C210.646957,267.827576 208.210312,266.832794 205.340790,265.998535 
	C200.728012,261.186401 196.508438,256.364624 192.119766,251.349655 
	C197.464279,247.126495 198.675415,241.897644 194.969391,235.416748 
	C195.710052,235.035660 196.482040,235.037582 197.640213,235.017761 
z"/>
<path fill="#CCCCCC" opacity="1.000000" stroke="none" 
	d="
M113.949341,249.093475 
	C114.346222,253.653366 114.444481,258.428864 114.422737,263.665436 
	C114.085388,259.187378 113.868050,254.248245 113.949341,249.093475 
z"/>
<path fill="#CCCCCC" opacity="1.000000" stroke="none" 
	d="
M179.497528,162.274872 
	C177.993927,158.991043 176.653564,155.324966 175.336273,151.286407 
	C176.793152,154.573502 178.226959,158.233063 179.497528,162.274872 
z"/>
<path fill="#CCCCCC" opacity="1.000000" stroke="none" 
	d="
M158.750061,181.023438 
	C159.040451,178.470276 159.629929,175.843430 160.474976,172.077698 
	C161.318634,174.541168 161.782364,175.895279 162.184341,177.595520 
	C161.098114,178.944351 160.073639,179.947067 158.750061,181.023438 
z"/>
<path fill="#CCCCCC" opacity="1.000000" stroke="none" 
	d="
M182.385406,171.773605 
	C181.586624,170.498672 181.014252,169.028473 180.516647,167.220154 
	C181.264877,168.447464 181.938339,170.012909 182.385406,171.773605 
z"/>
<path fill="#CCCCCC" opacity="1.000000" stroke="none" 
	d="
M192.653458,191.997101 
	C192.444855,193.173706 191.912796,194.358871 191.138916,195.763367 
	C191.374725,194.657028 191.852371,193.331345 192.653458,191.997101 
z"/>
<path fill="#CCCCCC" opacity="1.000000" stroke="none" 
	d="
M197.786163,188.668793 
	C196.867874,189.569016 195.755676,190.237183 194.315994,190.941132 
	C195.189743,190.130188 196.390991,189.283463 197.786163,188.668793 
z"/>
<path fill="#CCCCCC" opacity="1.000000" stroke="none" 
	d="
M114.588882,266.242645 
	C115.504608,267.141418 116.201569,268.245911 116.945511,269.677063 
	C116.118370,268.818604 115.244247,267.633453 114.588882,266.242645 
z"/>
<path fill="#CCCCCC" opacity="1.000000" stroke="none" 
	d="
M118.007233,271.325867 
	C119.184357,271.532257 120.369591,272.062744 121.770264,272.838013 
	C120.662247,272.605164 119.338799,272.127563 118.007233,271.325867 
z"/>
<path fill="#CCCCCC" opacity="1.000000" stroke="none" 
	d="
M207.011414,190.623901 
	C205.837585,190.422440 204.648758,189.899445 203.238617,189.136703 
	C204.343674,189.365433 205.670044,189.833908 207.011414,190.623901 
z"/>
<path fill="#CCCCCC" opacity="1.000000" stroke="none" 
	d="
M184.341400,182.808304 
	C183.874207,182.149796 183.633759,181.322388 183.513184,180.186859 
	C183.944748,180.798950 184.256454,181.719177 184.341400,182.808304 
z"/>
<path fill="#CCCCCC" opacity="1.000000" stroke="none" 
	d="
M187.356934,201.811523 
	C186.885971,201.146576 186.645889,200.318146 186.531860,199.183075 
	C186.967880,199.800308 187.277832,200.724182 187.356934,201.811523 
z"/>
<path fill="#CCCCCC" opacity="1.000000" stroke="none" 
	d="
M219.229828,235.831619 
	C218.796021,235.162933 218.591690,234.325943 218.520767,233.183273 
	C218.922546,233.806168 219.190948,234.734726 219.229828,235.831619 
z"/>
<path fill="#CCCCCC" opacity="1.000000" stroke="none" 
	d="
M164.663742,194.190704 
	C165.134521,194.847198 165.376297,195.673035 165.504547,196.809128 
	C165.072250,196.199615 164.753494,195.279816 164.663742,194.190704 
z"/>
<path fill="#CCCCCC" opacity="1.000000" stroke="none" 
	d="
M188.332733,207.814560 
	C187.850906,207.152893 187.602310,206.325699 187.477020,205.190247 
	C187.922180,205.804352 188.244064,206.726685 188.332733,207.814560 
z"/>
<path fill="#CCCCCC" opacity="1.000000" stroke="none" 
	d="
M214.326447,208.817322 
	C213.858826,208.149094 213.622803,207.317139 213.519577,206.181152 
	C213.954254,206.802612 214.256149,207.728088 214.326447,208.817322 
z"/>
<path fill="#CCCCCC" opacity="1.000000" stroke="none" 
	d="
M166.684738,207.185394 
	C167.175171,207.842529 167.431992,208.668655 167.567261,209.803650 
	C167.114182,209.193146 166.782639,208.273773 166.684738,207.185394 
z"/>
<path fill="#CCCCCC" opacity="1.000000" stroke="none" 
	d="
M115.297836,236.967407 
	C115.515648,237.766937 115.439896,238.624329 115.155922,239.736359 
	C114.966560,239.002426 114.985413,238.013870 115.297836,236.967407 
z"/>
<path fill="#CCCCCC" opacity="1.000000" stroke="none" 
	d="
M118.020332,221.988785 
	C118.283035,222.734207 118.289185,223.589813 118.106552,224.715973 
	C117.866440,224.024017 117.815109,223.061493 118.020332,221.988785 
z"/>
<path fill="#CCCCCC" opacity="1.000000" stroke="none" 
	d="
M150.728668,213.036011 
	C150.531464,212.239639 150.621841,211.384003 150.926392,210.275711 
	C151.099136,211.007629 151.057678,211.992172 150.728668,213.036011 
z"/>
<path fill="#CCCCCC" opacity="1.000000" stroke="none" 
	d="
M162.628983,181.191620 
	C163.092392,181.856445 163.327072,182.684769 163.435989,183.819473 
	C163.006912,183.202286 162.703583,182.278717 162.628983,181.191620 
z"/>
<path fill="#CCCCCC" opacity="1.000000" stroke="none" 
	d="
M179.225952,270.214722 
	C179.999420,270.084351 181.007355,270.208191 182.089294,270.617828 
	C181.262344,270.758759 180.361404,270.613861 179.225952,270.214722 
z"/>
<path fill="#CCCCCC" opacity="1.000000" stroke="none" 
	d="
M171.675446,233.163696 
	C172.133987,233.530701 172.385208,234.038345 172.564819,234.826782 
	C172.151505,234.506516 171.809799,233.905441 171.675446,233.163696 
z"/>
<path fill="#CCCCCC" opacity="1.000000" stroke="none" 
	d="
M117.119843,227.937500 
	C117.347359,228.438934 117.327065,228.995300 117.112411,229.769058 
	C116.902718,229.321777 116.887367,228.657120 117.119843,227.937500 
z"/>
<path fill="#CCCCCC" opacity="1.000000" stroke="none" 
	d="
M170.620453,229.161224 
	C171.075912,229.544189 171.320511,230.055298 171.471222,230.843689 
	C171.054733,230.510452 170.732162,229.899902 170.620453,229.161224 
z"/>
<path fill="#CCCCCC" opacity="1.000000" stroke="none" 
	d="
M146.682526,231.059189 
	C146.474640,230.527969 146.529938,229.963943 146.801788,229.201569 
	C146.994156,229.677628 146.969940,230.351990 146.682526,231.059189 
z"/>
<path fill="#CCCCCC" opacity="1.000000" stroke="none" 
	d="
M168.746490,220.130280 
	C169.150391,220.540710 169.344025,221.072662 169.401352,221.864899 
	C169.022110,221.500717 168.779160,220.876251 168.746490,220.130280 
z"/>
<path fill="#CCCCCC" opacity="1.000000" stroke="none" 
	d="
M143.833496,241.072540 
	C143.635345,240.555084 143.689102,239.996155 143.955872,239.232513 
	C144.141052,239.695557 144.113220,240.363312 143.833496,241.072540 
z"/>
<path fill="#CCCCCC" opacity="1.000000" stroke="none" 
	d="
M173.385666,238.691010 
	C173.946182,239.068314 174.349899,239.768402 174.714584,240.773987 
	C174.193314,240.390930 173.711090,239.702377 173.385666,238.691010 
z"/>
<path fill="#CCCCCC" opacity="1.000000" stroke="none" 
	d="
M141.320023,163.939804 
	C141.542770,164.477295 141.500534,165.045776 141.234085,165.808014 
	C141.024933,165.324783 141.039993,164.647797 141.320023,163.939804 
z"/>
<path fill="#CCCCCC" opacity="1.000000" stroke="none" 
	d="
M225.317505,255.865173 
	C224.870392,255.458908 224.646118,254.937073 224.540543,254.145294 
	C224.952957,254.500107 225.246643,255.124847 225.317505,255.865173 
z"/>
<path fill="#CCCCCC" opacity="1.000000" stroke="none" 
	d="
M138.639130,257.059814 
	C138.472321,256.525940 138.569183,255.966354 138.888245,255.212555 
	C139.041245,255.690277 138.972015,256.362213 138.639130,257.059814 
z"/>
<path fill="#CCCCCC" opacity="1.000000" stroke="none" 
	d="
M127.174835,273.393921 
	C127.532326,272.899261 128.029541,272.620972 128.814743,272.396912 
	C128.506683,272.837555 127.910629,273.223938 127.174835,273.393921 
z"/>
<path fill="#CCCCCC" opacity="1.000000" stroke="none" 
	d="
M167.653595,281.996155 
	C167.588150,281.318787 167.855621,280.560242 168.394104,279.647186 
	C168.438904,280.300110 168.212708,281.107544 167.653595,281.996155 
z"/>
<path fill="#CCCCCC" opacity="1.000000" stroke="none" 
	d="
M162.290558,303.862366 
	C161.892014,303.455994 161.701416,302.928497 161.634460,302.137268 
	C162.004898,302.496094 162.251694,303.118683 162.290558,303.862366 
z"/>
<path fill="#CCCCCC" opacity="1.000000" stroke="none" 
	d="
M165.069275,138.352051 
	C164.531754,138.512360 163.974747,138.406509 163.219467,138.086426 
	C163.697388,137.943436 164.373596,138.014664 165.069275,138.352051 
z"/>
<path fill="#CCCCCC" opacity="1.000000" stroke="none" 
	d="
M157.825211,137.632462 
	C157.473495,138.123886 156.977142,138.400894 156.192444,138.634216 
	C156.496246,138.199707 157.088394,137.808868 157.825211,137.632462 
z"/>
<path fill="#CCCCCC" opacity="1.000000" stroke="none" 
	d="
M151.810211,208.065857 
	C151.612976,207.555573 151.666107,207.000320 151.915131,206.231567 
	C152.094193,206.685684 152.077393,207.353271 151.810211,208.065857 
z"/>
<path fill="#CCCCCC" opacity="1.000000" stroke="none" 
	d="
M139.333130,171.938721 
	C139.515503,172.471664 139.435242,173.033279 139.133728,173.790070 
	C138.965149,173.312622 139.017838,172.640015 139.333130,171.938721 
z"/>
<path fill="#CCCCCC" opacity="1.000000" stroke="none" 
	d="
M183.320496,175.858795 
	C182.883942,175.457184 182.665573,174.934753 182.561096,174.143234 
	C182.962875,174.495422 183.250763,175.116699 183.320496,175.858795 
z"/>
<path fill="#CCCCCC" opacity="1.000000" stroke="none" 
	d="
M138.107971,175.931122 
	C138.309616,176.439285 138.266006,176.998474 138.011383,177.762451 
	C137.821167,177.305527 137.841934,176.643845 138.107971,175.931122 
z"/>
<path fill="#CCCCCC" opacity="1.000000" stroke="none" 
	d="
M135.901337,182.107758 
	C135.686691,182.714783 135.135269,183.291641 134.271179,183.890396 
	C134.493881,183.300720 135.029221,182.689163 135.901337,182.107758 
z"/>
<path fill="#CCCCCC" opacity="1.000000" stroke="none" 
	d="
M156.720795,188.065826 
	C156.540054,187.542358 156.616837,186.986206 156.899353,186.223633 
	C157.062836,186.689194 157.020569,187.361176 156.720795,188.065826 
z"/>
<path fill="#CCCCCC" opacity="1.000000" stroke="none" 
	d="
M185.266068,188.869476 
	C184.880264,188.457855 184.703201,187.927231 184.653412,187.135132 
	C185.012054,187.499252 185.243423,188.124863 185.266068,188.869476 
z"/>
<path fill="#CCCCCC" opacity="1.000000" stroke="none" 
	d="
M163.749084,188.126709 
	C164.149109,188.539993 164.337112,189.072067 164.390427,189.864838 
	C164.016159,189.498871 163.776611,188.872192 163.749084,188.126709 
z"/>
<path fill="#CCCCCC" opacity="1.000000" stroke="none" 
	d="
M155.697983,192.063293 
	C155.483612,191.527725 155.532150,190.961243 155.805939,190.200104 
	C156.007751,190.681091 155.984329,191.356735 155.697983,192.063293 
z"/>
<path fill="#CCCCCC" opacity="1.000000" stroke="none" 
	d="
M186.239075,194.873260 
	C185.831223,194.463074 185.636139,193.931549 185.574127,193.137726 
	C185.955414,193.500931 186.203629,194.126404 186.239075,194.873260 
z"/>
<path fill="#CCCCCC" opacity="1.000000" stroke="none" 
	d="
M153.858765,198.973633 
	C153.657562,198.333572 153.773956,197.559006 154.093369,196.560501 
	C154.256378,197.170746 154.216385,198.004929 153.858765,198.973633 
z"/>
<path fill="#CCCCCC" opacity="1.000000" stroke="none" 
	d="
M152.976501,203.052078 
	C152.740189,202.567184 152.738953,202.012283 152.930679,201.238739 
	C153.152954,201.674088 153.182266,202.328064 152.976501,203.052078 
z"/>
<path fill="#CCCCCC" opacity="1.000000" stroke="none" 
	d="
M165.747833,201.126633 
	C166.162720,201.537750 166.361618,202.068100 166.431458,202.861450 
	C166.045547,202.498260 165.788696,201.872070 165.747833,201.126633 
z"/>
<path fill="#CCCCCC" opacity="1.000000" stroke="none" 
	d="
M213.341797,202.845642 
	C212.879608,202.461777 212.633789,201.948318 212.484467,201.158249 
	C212.906708,201.493118 213.232437,202.104584 213.341797,202.845642 
z"/>
<path fill="#CCCCCC" opacity="1.000000" stroke="none" 
	d="
M122.350540,204.020203 
	C122.468277,204.697540 122.241684,205.469330 121.778290,206.442261 
	C121.696404,205.800491 121.851311,204.957581 122.350540,204.020203 
z"/>
<path fill="#CCCCCC" opacity="1.000000" stroke="none" 
	d="
M218.318817,228.846741 
	C217.852295,228.471359 217.604172,227.962631 217.431534,227.172913 
	C217.850403,227.499069 218.193817,228.106232 218.318817,228.846741 
z"/>
<path fill="#CCCCCC" opacity="1.000000" stroke="none" 
	d="
M192.730621,208.136337 
	C193.149811,208.541245 193.359818,209.070374 193.435669,209.861771 
	C193.041489,209.502884 192.781464,208.881729 192.730621,208.136337 
z"/>
<path fill="#CCCCCC" opacity="1.000000" stroke="none" 
	d="
M120.250488,209.933853 
	C120.474602,210.460876 120.437233,211.023621 120.188705,211.791229 
	C119.981361,211.320572 119.985184,210.645081 120.250488,209.933853 
z"/>
<path fill="#CCCCCC" opacity="1.000000" stroke="none" 
	d="
M189.305054,214.859283 
	C188.918060,214.453125 188.736343,213.925964 188.672424,213.136307 
	C189.030258,213.495300 189.270309,214.116791 189.305054,214.859283 
z"/>
<path fill="#CCCCCC" opacity="1.000000" stroke="none" 
	d="
M215.234985,214.875031 
	C214.815369,214.464630 214.611633,213.933151 214.541840,213.139252 
	C214.934143,213.502548 215.192505,214.128250 215.234985,214.875031 
z"/>
<path fill="#CCCCCC" opacity="1.000000" stroke="none" 
	d="
M167.772293,214.121490 
	C168.181259,214.536728 168.374680,215.070953 168.428253,215.864685 
	C168.044540,215.496277 167.800644,214.868393 167.772293,214.121490 
z"/>
<path fill="#CCCCCC" opacity="1.000000" stroke="none" 
	d="
M149.832855,217.064209 
	C149.610779,216.554306 149.639648,215.995941 149.869644,215.224670 
	C150.075119,215.679764 150.079453,216.347733 149.832855,217.064209 
z"/>
<path fill="#CCCCCC" opacity="1.000000" stroke="none" 
	d="
M193.773209,215.120758 
	C194.187714,215.534653 194.385452,216.067230 194.445526,216.861847 
	C194.057388,216.495743 193.806931,215.867584 193.773209,215.120758 
z"/>
<path fill="#CCCCCC" opacity="1.000000" stroke="none" 
	d="
M119.058678,215.945374 
	C119.292145,216.434601 119.286865,216.990143 119.087692,217.764160 
	C118.869179,217.325653 118.844551,216.668671 119.058678,215.945374 
z"/>
<path fill="#CCCCCC" opacity="1.000000" stroke="none" 
	d="
M148.811920,222.062134 
	C148.581528,221.548004 148.603836,220.985947 148.831146,220.215027 
	C149.045639,220.675537 149.055130,221.344864 148.811920,222.062134 
z"/>
<path fill="#CCCCCC" opacity="1.000000" stroke="none" 
	d="
M194.742310,221.136459 
	C195.184341,221.528824 195.409958,222.049179 195.527237,222.842804 
	C195.121231,222.498871 194.823563,221.881653 194.742310,221.136459 
z"/>
<path fill="#CCCCCC" opacity="1.000000" stroke="none" 
	d="
M191.235382,223.858749 
	C190.752609,223.491928 190.490448,222.986954 190.308121,222.196548 
	C190.743988,222.514282 191.100006,223.117432 191.235382,223.858749 
z"/>
<path fill="#CCCCCC" opacity="1.000000" stroke="none" 
	d="
M147.888016,226.063370 
	C147.674393,225.563126 147.705246,225.007797 147.932098,224.236633 
	C148.129547,224.683304 148.131012,225.345795 147.888016,226.063370 
z"/>
<path fill="#CCCCCC" opacity="1.000000" stroke="none" 
	d="
M169.606842,225.158600 
	C170.055023,225.551437 170.289917,226.067764 170.417511,226.855713 
	C170.004669,226.512238 169.699112,225.897171 169.606842,225.158600 
z"/>
<path fill="#CCCCCC" opacity="1.000000" stroke="none" 
	d="
M195.779114,226.132507 
	C196.196472,226.531525 196.405060,227.060608 196.487885,227.854675 
	C196.098221,227.500641 195.834274,226.881607 195.779114,226.132507 
z"/>
<path fill="#FDFDFD" opacity="1.000000" stroke="none" 
	d="
M53.138733,391.131104 
	C52.959965,391.409515 52.666115,391.577393 52.372261,391.745270 
	C52.345726,391.491455 52.319195,391.237610 52.546265,390.888489 
	C52.799870,390.793182 53.023659,391.020599 53.138733,391.131104 
z"/>
<path fill="#F7F7F7" opacity="1.000000" stroke="none" 
	d="
M236.847534,306.163177 
	C239.479919,298.177094 243.240265,291.482086 250.190567,286.993744 
	C253.693253,284.731812 255.921844,284.969604 257.803223,289.249725 
	C264.023407,303.400604 263.627563,316.962769 255.304337,330.179077 
	C252.380310,334.822083 248.801010,335.663727 244.627319,332.074158 
	C236.700241,325.256439 233.742065,316.806946 236.847534,306.163177 
z"/>
<path fill="#EAEAEA" opacity="1.000000" stroke="none" 
	d="
M411.580200,178.231567 
	C414.344360,173.771957 417.373810,169.566299 420.403259,165.360626 
	C420.931854,165.632050 421.460419,165.903473 421.989014,166.174896 
	C421.989014,173.124237 421.989014,180.073578 421.989014,186.878662 
	C418.725464,184.178284 415.285461,181.331894 411.580200,178.231567 
z"/>
<path fill="#F1F1F1" opacity="1.000000" stroke="none" 
	d="
M393.165802,448.965027 
	C392.764343,449.540039 392.619263,449.896729 392.355591,450.051910 
	C389.804138,451.553772 387.232788,453.021851 384.667114,454.499573 
	C383.697327,451.491669 382.664185,448.501709 381.803528,445.462891 
	C381.595673,444.729126 381.934204,443.830048 382.062256,443.013428 
	C382.652679,439.248444 383.625671,435.567291 388.285248,435.363312 
	C391.481415,435.223358 394.635040,440.101379 394.363953,444.363525 
	C394.272064,445.808716 393.712830,447.224152 393.165802,448.965027 
z"/>
</svg>